<svg width="208" height="205" viewBox="0 0 208 205" fill="none" xmlns="http://www.w3.org/2000/svg">
<path d="M0 14.2773C0 6.54536 6.26801 0.277344 14 0.277344H194C201.732 0.277344 208 6.54536 208 14.2773V190.277C208 198.009 201.732 204.277 194 204.277H14C6.26802 204.277 0 198.009 0 190.277V14.2773Z" fill="#0A2538"/>
<path d="M139.598 72.9662C164.12 72.9657 183.999 92.8759 184 117.437C184.001 141.998 164.122 161.91 139.601 161.911H139.487C136.465 161.911 134.113 167.066 134.113 170.093C134.113 175.717 129.561 180.277 123.945 180.277C118.329 180.277 113.777 175.717 113.777 170.093C113.777 164.468 118.329 159.908 123.945 159.908C125.961 159.908 128.117 158.516 128.117 156.497V148C128.117 144.708 130.781 142.039 134.068 142.039H139.6C153.164 142.038 164.16 131.024 164.16 117.438C164.159 103.852 153.163 92.8386 139.599 92.8388L80.0389 92.8408C76.7517 92.8409 74.0864 90.1716 74.0863 86.879V78.9299C74.0863 75.6373 76.7512 72.9683 80.0385 72.9682L139.598 72.9662Z" fill="#E2CC9C"/>
<path d="M87.2403 24.2773C92.856 24.2773 97.4084 28.8373 97.4085 34.4621C97.4084 40.0869 92.856 44.6468 87.2403 44.6468C84.2673 44.6468 79.8829 46.754 79.883 49.7319L79.8835 53.3231C79.8835 55.9404 77.7651 58.0622 75.152 58.0622H68.3997C54.8357 58.0627 43.8401 69.0773 43.8404 82.6633C43.8409 96.2493 54.8372 107.262 68.4011 107.262L127.961 107.261C131.248 107.26 133.913 109.929 133.913 113.222L133.914 121.171C133.914 124.463 131.249 127.133 127.962 127.133L68.4016 127.135C43.8801 127.135 24.0008 107.225 24 82.6638C23.9993 58.1025 43.8776 38.1903 68.3992 38.1896H73.9652C75.7948 38.1896 77.0721 36.2946 77.0721 34.4621C77.0722 28.8373 81.6246 24.2773 87.2403 24.2773Z" fill="#E2CC9C"/>
</svg>
